# xmcd CD database file
#
# Track frame offsets:
#	150
#	39600
#	70177
#	102422
#	130475
#	159275
#	186872
#	219120
#	250175
#	275225
#
# Disc length: 4006 seconds
#
# Revision: 0
# Processed by: cddbd v1.5.2PL0 Copyright (c) Steve Scherf et al.
# Submitted via: CDex 1.51
#
DISCID=910fa40a
DTITLE=Stefan Karlsson Trio - No Place To Go But Up
DYEAR=2000
DGENRE=Jazz
TTITLE0=Mack The Knife
TTITLE1=If Never Was You
TTITLE2=No Place To Go But Up
TTITLE3=Here I'll Stay
TTITLE4=Speak Low
TTITLE5=Moon-Faced, Starry Eyed
TTITLE6=Lost In The Stars
TTITLE7=This Is New
TTITLE8=My Ship
TTITLE9=West Wind
EXTD=YEAR: 2000
EXTT0=
EXTT1=
EXTT2=
EXTT3=
EXTT4=
EXTT5=
EXTT6=
EXTT7=
EXTT8=
EXTT9=
PLAYORDER=
